<svg xmlns="http://www.w3.org/2000/svg" viewBox="0 0 163.52 62.84"><defs><style>.cls-1{fill:#fff;}.cls-2{fill:#e52421;}</style></defs><g id="Capa_2" data-name="Capa 2"><path class="cls-1" d="M49.5,18.63a30.71,30.71,0,0,0,2.11-3.7,12.1,12.1,0,0,0,1.16-3.21A14.77,14.77,0,0,0,53,9.89a6.05,6.05,0,0,0-.19-1.34q-.68-2.12-3.84-3.07a19.92,19.92,0,0,0-3.51-.15,20.18,20.18,0,0,0-4.37.53,45,45,0,0,0-7.24,2.31,65.76,65.76,0,0,0-7.64,3.69,76.81,76.81,0,0,0-7.53,4.85,71.59,71.59,0,0,0-6.87,5.66q-7,6.63-6.62,11a5.33,5.33,0,0,0,1.73,3.55,22.61,22.61,0,0,0,5.66,3.65,41,41,0,0,0,4.66,2.06q2.44.91,6.77,2.35c1.27.45,2.51.9,3.69,1.35s2,.77,2.45,1l1.54.67L35.1,45.8c1.92-1.15,3.79-2.26,5.62-3.31s3.45-2,4.89-2.79,2.61-1.42,3.51-1.87,1.4-.64,1.53-.58.05.15,0,.24a6.3,6.3,0,0,1-.87.58l-2.21,1.3q-1.48.85-4.08,2.4l-3.84,2.3c-1.28.77-2.44,1.46-3.5,2.06s-1.92,1.12-2.59,1.54a4.27,4.27,0,0,0-1,.72c-.07,0,.22.32.86,1a5,5,0,0,1,2,3.46A7,7,0,0,1,34,56.93a28.19,28.19,0,0,1-2.06,2.31q-1.5,1.53-2.55,2.4a31.67,31.67,0,0,1-4.22,2.83,25.88,25.88,0,0,1-4.32,2,10.54,10.54,0,0,1-3.17.53,8.6,8.6,0,0,1-2.69-.24,4.47,4.47,0,0,1-2.21-1.64c-.45-.76-.32-1.85.39-3.26a14.64,14.64,0,0,1,3.31-3.65A50.79,50.79,0,0,1,23,53.48l2-1.39q.77-.54,1.35-.87c.38-.22.73-.45,1.05-.67s.74-.5,1.25-.82l1.92-1.15-1.15-.48c-.58-.25-1.54-.61-2.88-1.05S23.23,46,20.61,45.13c-2.18-.71-3.94-1.33-5.28-1.88s-2.76-1.16-4.23-1.87a27.92,27.92,0,0,1-3.5-1.92,14.25,14.25,0,0,1-2.35-1.92,6.54,6.54,0,0,1-2-4.61,8.5,8.5,0,0,1,.38-2.11,13.91,13.91,0,0,1,.87-2.3,19.26,19.26,0,0,1,3.17-4.47,48.45,48.45,0,0,1,5.23-4.94c2-1.66,4.2-3.3,6.57-4.9a70.27,70.27,0,0,1,7.3-4.32A65.54,65.54,0,0,1,37.07,5.62a30.06,30.06,0,0,1,8.69-1.49,12.59,12.59,0,0,1,4.51.68,5.38,5.38,0,0,1,3.84,5.85q-.57,6.91-11.52,18.82Q41,31.21,39,32.93t-3.65,3.12a28.82,28.82,0,0,1-3.17,2.26,4.83,4.83,0,0,1-2.11.86A1.17,1.17,0,0,1,29,38.6a1.36,1.36,0,0,1,0-1.35c.2-.51.42-.51.68,0,0,.26.09.39.28.39a6.51,6.51,0,0,0,1.49-.91l2.64-1.88q2-1.53,4.18-3.5c1.44-1.31,2.84-2.69,4.22-4.13s2.66-2.89,3.84-4.37S48.6,20,49.5,18.63ZM31.36,49.06l-1.92,1.15a22.56,22.56,0,0,0-2,1.25c-.74.51-1.51,1-2.3,1.54s-1.56,1-2.26,1.49-1.28.87-1.73,1.2a43.26,43.26,0,0,0-4.61,3.69A11.59,11.59,0,0,0,14,62.5c-.13.32-.26.61-.38.87a1.37,1.37,0,0,0-.19.57,1.34,1.34,0,0,0,.48,1,2.65,2.65,0,0,0,1,.67,5.23,5.23,0,0,0,2.16.2,10.47,10.47,0,0,0,2.74-.58,26.45,26.45,0,0,0,6-2.88,30.16,30.16,0,0,0,5.52-4.51,11.78,11.78,0,0,0,2.69-3.75,3.23,3.23,0,0,0-.48-2.88,3.2,3.2,0,0,0-.58-.76,7.82,7.82,0,0,0-.77-.68Z" transform="translate(-3.23 -4.13)"/><path class="cls-1" d="M57.56,35.72c.52,0,.79.19.82.57a5.7,5.7,0,0,1-.72,2.21,26.33,26.33,0,0,0-1.39,3.94,6.23,6.23,0,0,0-.15,2.49A1.1,1.1,0,0,0,56.89,46a.66.66,0,0,0,.53.14,4.2,4.2,0,0,0,.72-.24,12.72,12.72,0,0,0,3.36-2.06,62.29,62.29,0,0,0,5.09-4.66c.89-.83,1.65-1.53,2.25-2.11a6.09,6.09,0,0,1,1-.86c.45,0-.06.77-1.53,2.3a63,63,0,0,1-5,5,20.58,20.58,0,0,1-4,2.93c-2,1-3.45.8-4.22-.67a5.87,5.87,0,0,1-.39-2,8.24,8.24,0,0,1,.1-2.26.43.43,0,0,1,0-.24.38.38,0,0,0,.05-.24v-.28l-.48.48a6.93,6.93,0,0,0-.48.52c-.2.23-.39.47-.58.72a26.34,26.34,0,0,1-3.55,3.75,4.84,4.84,0,0,1-2.5,1.15A1.39,1.39,0,0,1,46,47.24a2.39,2.39,0,0,1-1-2.21,6.55,6.55,0,0,1,.63-2.59,14.18,14.18,0,0,1,1.63-2.79,14.78,14.78,0,0,1,2.4-2.49,16.84,16.84,0,0,1,2.83-1.92,5.77,5.77,0,0,1,2.79-.87q1.24,0,1.53.87A.81.81,0,0,0,57.56,35.72Zm-3.45,4a22.25,22.25,0,0,0,1.77-2.3,1.46,1.46,0,0,0,.24-1.06c-.06-.32-.19-.48-.38-.48a2.37,2.37,0,0,0-1.34.38,12.64,12.64,0,0,0-3.7,2.88,19,19,0,0,0-2.93,4c-.89,1.79-1,2.68-.29,2.68a3.88,3.88,0,0,0,1.35-.67,16.51,16.51,0,0,0,2.35-2.11A43,43,0,0,0,54.11,39.75Z" transform="translate(-3.23 -4.13)"/><path class="cls-1" d="M70.91,36.39c-.32.7-.83,1.7-1.54,3l-2.11,3.84a1.52,1.52,0,0,0-.24.48,2.22,2.22,0,0,1-.14.38,1.21,1.21,0,0,1-.2.29c.2,0,.77-.48,1.73-1.44l2.45-2.26c.86-.8,1.73-1.57,2.59-2.3s1.63-1.38,2.31-1.92,1.2-.95,1.58-1.2a1.77,1.77,0,0,1,1.15-.34.83.83,0,0,1,.77.53.85.85,0,0,1,.1.34c0,.09,0,.27,0,.52s-.08.66-.15,1.2-.19,1.3-.38,2.26A13.6,13.6,0,0,0,78.49,43c.06.67.32,1.07.77,1.2a3.39,3.39,0,0,0,1.82-.2,16.23,16.23,0,0,0,2.4-.86,11.74,11.74,0,0,0,2.26-1.49c.74-.61,1.81-1.61,3.22-3l1.53-1.35c.45-.38.67-.54.67-.48s0,.47-.43,1a26.83,26.83,0,0,1-2.64,2.74c-.77.77-1.44,1.42-2,2a17.75,17.75,0,0,1-1.59,1.34,9,9,0,0,1-1.34.82c-.42.19-.88.38-1.39.57a8.45,8.45,0,0,1-2.07.34A3.6,3.6,0,0,1,78,45.32a3,3,0,0,1-1.25-2.5,6.47,6.47,0,0,1,0-2.35,15.7,15.7,0,0,1,.72-2.93,4.6,4.6,0,0,0,.29-1.25c0-.12-.27,0-.82.44s-1.21,1-2,1.72l-2.59,2.4q-1.4,1.3-2.55,2.55l-3,3.12c-.71.73-1.27,1.28-1.68,1.63a8,8,0,0,1-.87.67,1,1,0,0,1-.53.15,1,1,0,0,1-.86-.39,1.88,1.88,0,0,1-.38-1A5.5,5.5,0,0,1,63,45.94a20.28,20.28,0,0,1,1.24-2.54c.39-.77.81-1.51,1.25-2.21a21.61,21.61,0,0,0,1.15-2q2.22-3.36,3-4.36c.51-.68,1-1,1.44-.92C71.8,34,71.74,34.85,70.91,36.39Z" transform="translate(-3.23 -4.13)"/><path class="cls-1" d="M115.55,23.62c-.19,0-.24-.09-.15-.29a1.17,1.17,0,0,1,.63-.48l.57-.28h-1.34c-.71,0-2,0-3.79.09l-8.69.29-2.78.1-1.64,2.59Q89,40.24,87.61,47.43q-.67,3.16,1.25,2.88a6.36,6.36,0,0,0,1.49-.43,9.07,9.07,0,0,0,2-1.25c.76-.61,1.69-1.42,2.78-2.45s2.46-2.37,4.13-4c1.4-1.41,2.51-2.48,3.31-3.22s1.39-1.26,1.78-1.58a6,6,0,0,1,.76-.58.92.92,0,0,1,.39-.09q.09,0-.63.81t-1.92,2.07c-.8.83-1.69,1.74-2.68,2.73l-2.88,2.88c-.93.93-1.77,1.75-2.5,2.45s-1.27,1.19-1.58,1.44c-1.92,1.66-3.53,2.5-4.8,2.5a1.88,1.88,0,0,1-1.35-.39c-1-.76-1.25-2.14-.86-4.12a38.65,38.65,0,0,1,3.21-8.93q2.64-5.67,6.68-12.48c.19-.32.36-.63.52-.91s.31-.56.44-.82a4.57,4.57,0,0,1,.38-.67h-1q-.92,0-2.16.09c-.9.07-2,.12-3.26.15s-2.4.05-3.36.05c-1.47,0-2.47,0-3-.05a2.23,2.23,0,0,1-1-.24c-.71-.32-.9-.71-.58-1.15a.87.87,0,0,1,.62-.58,3.69,3.69,0,0,1,1.49.19,24.55,24.55,0,0,0,4.08.53c1.63.1,3.44.11,5.42.05l3.46-.19,1.73-2.6c1.6-2.36,2.85-4.08,3.74-5.13s1.6-1.59,2.12-1.59.95.26.95.77a2.44,2.44,0,0,1-.47.87l-1.06,1.44-1.3,1.72-1.39,1.88c-.45.6-.83,1.15-1.15,1.63a4,4,0,0,0-.48.81q-.19.39,9.89-.48c2-.19,3.63-.32,4.75-.38s1.93-.1,2.45-.1a6.84,6.84,0,0,1,1,.05,3.56,3.56,0,0,1,.52.15.93.93,0,0,1,.77,1.05c-.06.51-.42.83-1,1a8.24,8.24,0,0,1-1.83.34C116.47,23.57,115.87,23.62,115.55,23.62Z" transform="translate(-3.23 -4.13)"/><path class="cls-1" d="M105.76,37.83q-1.35,2.12-2.55,4.22a16.39,16.39,0,0,0-1.49,3.17,5,5,0,0,0-.19.87,1.07,1.07,0,0,0,.19.48q1,1.44,4.71-1.16a32.15,32.15,0,0,0,3.89-3c1.56-1.38,3.15-2.86,4.75-4.46.51-.52.94-.93,1.29-1.25s.56-.48.63-.48.08.19-.15.57a11.23,11.23,0,0,1-1.68,1.92,36,36,0,0,1-2.49,2.64c-.9.87-1.78,1.68-2.64,2.45s-1.7,1.46-2.5,2.07a19.7,19.7,0,0,1-2.06,1.39,9.14,9.14,0,0,1-2.5,1,2.57,2.57,0,0,1-1.82-.28c-1.22-.58-1.64-1.92-1.25-4a12.09,12.09,0,0,1,.81-2.06c.42-.86.89-1.74,1.4-2.64s1-1.76,1.63-2.59a14.64,14.64,0,0,1,1.54-1.92,1.8,1.8,0,0,1,1.15-.67.64.64,0,0,1,.57.28.81.81,0,0,1,.15,1A27.36,27.36,0,0,1,105.76,37.83Zm4.31-7.78a1.23,1.23,0,0,1-1,.1,1,1,0,0,1-.82-.91,1.79,1.79,0,0,1,.63-1.39,1.38,1.38,0,0,1,1-.48c.57-.13,1,.16,1.15.86a1.94,1.94,0,0,1-.14,1.06A1.33,1.33,0,0,1,110.07,30.05Z" transform="translate(-3.23 -4.13)"/><path class="cls-2" d="M142.24,11.91a2.06,2.06,0,0,1-1.16.77,19.67,19.67,0,0,0-3.45,1.63,30.37,30.37,0,0,0-3.84,2.59c-.71.58-1.46,1.27-2.26,2.07s-1.58,1.63-2.35,2.49-1.51,1.76-2.21,2.69-1.34,1.81-1.92,2.64a44,44,0,0,0-6.91,15.84,33.82,33.82,0,0,0-.38,8.45,6.38,6.38,0,0,1,.09,1.73c-.06.19-.22.09-.48-.29a3.9,3.9,0,0,1-.62-1.59,13.85,13.85,0,0,1-.29-2.49c0-.93,0-1.91,0-2.93a25.4,25.4,0,0,1,.24-2.88c.25-1.34.51-2.56.77-3.65s.54-2.11.86-3.07.67-1.9,1.06-2.83.86-2,1.44-3.12a46.74,46.74,0,0,1,4.36-7.11A56.77,56.77,0,0,1,131,16.33a43.49,43.49,0,0,1,3.41-2.93,21.49,21.49,0,0,1,3.17-2.07,12.41,12.41,0,0,1,2.64-1.05,2.22,2.22,0,0,1,1.73.09C142.46,10.69,142.55,11.21,142.24,11.91Z" transform="translate(-3.23 -4.13)"/><path class="cls-2" d="M159.51,11a1.78,1.78,0,0,1,.68,1.06,13.1,13.1,0,0,1,.48,2.16,20.44,20.44,0,0,1,.19,2.83,23.91,23.91,0,0,1-.19,3,42.55,42.55,0,0,1-1.4,7.06,39.35,39.35,0,0,1-2.73,6.58,50.89,50.89,0,0,1-4.13,6.91,55.12,55.12,0,0,1-5.28,6.24c-.7.7-1.34,1.31-1.92,1.82s-1.14,1-1.68,1.39-1.09.82-1.63,1.2-1.14.77-1.78,1.16c-2.43,1.4-4,1.82-4.8,1.24a1.29,1.29,0,0,1-.38-1.63,4,4,0,0,1,.43-.38,2.72,2.72,0,0,1,.82-.39,15.58,15.58,0,0,0,3.4-1.58,27.82,27.82,0,0,0,3.8-2.64c.32-.26.76-.64,1.34-1.15s1.12-1,1.63-1.54a47.67,47.67,0,0,0,8.16-10.8,44,44,0,0,0,4.61-12.24,33.16,33.16,0,0,0,.29-8.54c-.07-.77-.1-1.25-.1-1.44S159.38,11,159.51,11Z" transform="translate(-3.23 -4.13)"/><path class="cls-2" d="M155.52,50.89a2.86,2.86,0,0,0,1.54-1.15,1.66,1.66,0,0,0,.19-1.53,1.21,1.21,0,0,1-.05-.87.75.75,0,0,1,.53-.48H158A1.43,1.43,0,0,1,159.36,48a2.39,2.39,0,0,1-.48,1.83,3.89,3.89,0,0,1-1.82,1.53,4.82,4.82,0,0,1-1.15.29c-.45.07-.74,0-.87-.09S155,51.15,155.52,50.89Zm8.64-14A1.23,1.23,0,0,1,164,35.2a1.47,1.47,0,0,1,1.44-.82,1.69,1.69,0,0,1,.77.29c.77.64.77,1.34,0,2.11A1.46,1.46,0,0,1,164.16,36.88Z" transform="translate(-3.23 -4.13)"/></g></svg>